<svg xmlns="http://www.w3.org/2000/svg" width="555" height="555" viewBox="-27.5 -27.5 555 555" role="img" aria-labelledby="plant-potted--title plant-potted--desc">
<title id="plant-potted--title">Plant · potted broadleaf</title>
<desc id="plant-potted--desc">Original shaded orthographic top view. Nominal footprint 500 by 500 millimetres. Front is +Y. Transparent background. No clearance or construction certification.</desc>
<defs>
<linearGradient id="plant-potted--ceramic" x1="0" y1="0" x2="0.9" y2="1"><stop stop-color="#ffffff"/><stop offset="0.5" stop-color="#f6f7f7"/><stop offset="1" stop-color="#dfe1e3"/></linearGradient>
<linearGradient id="plant-potted--rim" x1="0" y1="0" x2="0.8" y2="1"><stop stop-color="#fafbfb"/><stop offset="0.35" stop-color="#e8eaeb"/><stop offset="1" stop-color="#bec2c6"/></linearGradient>
<radialGradient id="plant-potted--well" cx="0.52" cy="0.65" r="0.67"><stop stop-color="#fbfcfc"/><stop offset="0.67" stop-color="#f2f3f4"/><stop offset="0.88" stop-color="#e1e3e5"/><stop offset="1" stop-color="#b9bec2"/></radialGradient>
<linearGradient id="plant-potted--steel" x1="0" y1="0" x2="1" y2="0.85"><stop stop-color="#d0d4d7"/><stop offset="0.24" stop-color="#f4f5f5"/><stop offset="0.49" stop-color="#bfc5c9"/><stop offset="0.73" stop-color="#e4e7e8"/><stop offset="1" stop-color="#aab1b6"/></linearGradient>
<linearGradient id="plant-potted--steelwell" x1="0" y1="0" x2="0.8" y2="1"><stop stop-color="#929ba2"/><stop offset="0.18" stop-color="#bec5ca"/><stop offset="0.56" stop-color="#e0e4e6"/><stop offset="1" stop-color="#b9c1c7"/></linearGradient>
<linearGradient id="plant-potted--upholstery" x1="0" y1="0" x2="0.7" y2="1"><stop stop-color="#e6e7e8"/><stop offset="0.45" stop-color="#d3d6d8"/><stop offset="1" stop-color="#b8bdc1"/></linearGradient>
<linearGradient id="plant-potted--cushion" x1="0" y1="0" x2="0.85" y2="1"><stop stop-color="#f0f1f2"/><stop offset="0.4" stop-color="#dfe2e4"/><stop offset="0.78" stop-color="#d4d8db"/><stop offset="1" stop-color="#bfc5c9"/></linearGradient>
<linearGradient id="plant-potted--linen" x1="0" y1="0" x2="0.8" y2="1"><stop stop-color="#f9fafb"/><stop offset="0.4" stop-color="#edf0f1"/><stop offset="1" stop-color="#cfd5d9"/></linearGradient>
<linearGradient id="plant-potted--wood" x1="0" y1="0" x2="0.35" y2="1"><stop stop-color="#d4d2cf"/><stop offset="0.5" stop-color="#c9c7c4"/><stop offset="1" stop-color="#b3b2af"/></linearGradient>
<linearGradient id="plant-potted--counter" x1="0" y1="0" x2="0.6" y2="1"><stop stop-color="#fafafa"/><stop offset="0.5" stop-color="#f0f1f1"/><stop offset="1" stop-color="#dadddf"/></linearGradient>
<linearGradient id="plant-potted--dark" x1="0" y1="0" x2="0.8" y2="1"><stop stop-color="#596168"/><stop offset="0.5" stop-color="#3c4349"/><stop offset="1" stop-color="#292f34"/></linearGradient>
<linearGradient id="plant-potted--glass" x1="0" y1="0" x2="1" y2="1"><stop stop-color="#f8fbfc" stop-opacity="0.84"/><stop offset="0.5" stop-color="#dfe7eb" stop-opacity="0.60"/><stop offset="1" stop-color="#bfcbd2" stop-opacity="0.78"/></linearGradient>
<radialGradient id="plant-potted--foliage" cx="0.38" cy="0.30" r="0.75"><stop stop-color="#d2d5d2"/><stop offset="0.55" stop-color="#aeb5b0"/><stop offset="1" stop-color="#858e89"/></radialGradient>
<linearGradient id="plant-potted--leaf" x1="0" y1="0" x2="1" y2="1"><stop stop-color="#c9d0cb"/><stop offset="0.5" stop-color="#a3aea6"/><stop offset="1" stop-color="#79867d"/></linearGradient>
<linearGradient id="plant-potted--tread" x1="0" y1="0" x2="0" y2="1"><stop stop-color="#eceeef"/><stop offset="0.78" stop-color="#dde0e2"/><stop offset="1" stop-color="#bcc2c6"/></linearGradient>
</defs>
<g id="plant-potted--artwork"><ellipse cx="250" cy="250" rx="178.85" ry="178.85" fill="url(#plant-potted--rim)" stroke="#a5b3bd" stroke-width="1.6"/><ellipse cx="250" cy="250" rx="147" ry="147" fill="#a6ada6" stroke="#c4ccc7" stroke-width="1.6"/><g transform="translate(250 250) rotate(0)"><path d="M0,0 Q-81.585,-127.89 0,-220.5 Q81.585,-127.89 0,0 Z" fill="url(#plant-potted--leaf)" stroke="#83928a" stroke-width="1.12" stroke-linejoin="round" stroke-linecap="round"/><path d="M0,0 L0,-176.4" fill="none" stroke="#d5ddd7" stroke-width="0.96" stroke-linejoin="round" stroke-linecap="round" opacity=".6"/></g><g transform="translate(250 250) rotate(40)"><path d="M0,0 Q-81.585,-127.89 0,-220.5 Q81.585,-127.89 0,0 Z" fill="url(#plant-potted--leaf)" stroke="#83928a" stroke-width="1.12" stroke-linejoin="round" stroke-linecap="round"/><path d="M0,0 L0,-176.4" fill="none" stroke="#d5ddd7" stroke-width="0.96" stroke-linejoin="round" stroke-linecap="round" opacity=".6"/></g><g transform="translate(250 250) rotate(80)"><path d="M0,0 Q-81.585,-127.89 0,-220.5 Q81.585,-127.89 0,0 Z" fill="url(#plant-potted--leaf)" stroke="#83928a" stroke-width="1.12" stroke-linejoin="round" stroke-linecap="round"/><path d="M0,0 L0,-176.4" fill="none" stroke="#d5ddd7" stroke-width="0.96" stroke-linejoin="round" stroke-linecap="round" opacity=".6"/></g><g transform="translate(250 250) rotate(120)"><path d="M0,0 Q-81.585,-127.89 0,-220.5 Q81.585,-127.89 0,0 Z" fill="url(#plant-potted--leaf)" stroke="#83928a" stroke-width="1.12" stroke-linejoin="round" stroke-linecap="round"/><path d="M0,0 L0,-176.4" fill="none" stroke="#d5ddd7" stroke-width="0.96" stroke-linejoin="round" stroke-linecap="round" opacity=".6"/></g><g transform="translate(250 250) rotate(160)"><path d="M0,0 Q-81.585,-127.89 0,-220.5 Q81.585,-127.89 0,0 Z" fill="url(#plant-potted--leaf)" stroke="#83928a" stroke-width="1.12" stroke-linejoin="round" stroke-linecap="round"/><path d="M0,0 L0,-176.4" fill="none" stroke="#d5ddd7" stroke-width="0.96" stroke-linejoin="round" stroke-linecap="round" opacity=".6"/></g><g transform="translate(250 250) rotate(200)"><path d="M0,0 Q-81.585,-127.89 0,-220.5 Q81.585,-127.89 0,0 Z" fill="url(#plant-potted--leaf)" stroke="#83928a" stroke-width="1.12" stroke-linejoin="round" stroke-linecap="round"/><path d="M0,0 L0,-176.4" fill="none" stroke="#d5ddd7" stroke-width="0.96" stroke-linejoin="round" stroke-linecap="round" opacity=".6"/></g><g transform="translate(250 250) rotate(240)"><path d="M0,0 Q-81.585,-127.89 0,-220.5 Q81.585,-127.89 0,0 Z" fill="url(#plant-potted--leaf)" stroke="#83928a" stroke-width="1.12" stroke-linejoin="round" stroke-linecap="round"/><path d="M0,0 L0,-176.4" fill="none" stroke="#d5ddd7" stroke-width="0.96" stroke-linejoin="round" stroke-linecap="round" opacity=".6"/></g><g transform="translate(250 250) rotate(280)"><path d="M0,0 Q-81.585,-127.89 0,-220.5 Q81.585,-127.89 0,0 Z" fill="url(#plant-potted--leaf)" stroke="#83928a" stroke-width="1.12" stroke-linejoin="round" stroke-linecap="round"/><path d="M0,0 L0,-176.4" fill="none" stroke="#d5ddd7" stroke-width="0.96" stroke-linejoin="round" stroke-linecap="round" opacity=".6"/></g><g transform="translate(250 250) rotate(320)"><path d="M0,0 Q-81.585,-127.89 0,-220.5 Q81.585,-127.89 0,0 Z" fill="url(#plant-potted--leaf)" stroke="#83928a" stroke-width="1.12" stroke-linejoin="round" stroke-linecap="round"/><path d="M0,0 L0,-176.4" fill="none" stroke="#d5ddd7" stroke-width="0.96" stroke-linejoin="round" stroke-linecap="round" opacity=".6"/></g><ellipse cx="250" cy="250" rx="19.6" ry="19.6" fill="#bdc9bf" stroke="none" stroke-width="1.6"/></g>
</svg>