<svg xmlns="http://www.w3.org/2000/svg" width="1524" height="762" viewBox="-120 -120 1764 1002" role="img" aria-labelledby="svg-v2-01_bathroom-tub-alcove-5ft--title svg-v2-01_bathroom-tub-alcove-5ft--desc" data-vertex-style="white-outline-2">
<title id="svg-v2-01_bathroom-tub-alcove-5ft--title">Tub Alcove 5 ft</title>
<desc id="svg-v2-01_bathroom-tub-alcove-5ft--desc">Orthographic top view of a five-foot alcove bathtub with a recessed basin and end-mounted fittings. Nominal footprint 1524 by 762 millimetres. Front is +Y. Transparent background.</desc>
<defs><linearGradient id="svg-v2-01_bathroom-tub-alcove-5ft--ceramic" x1="0" y1="0" x2="0" y2="1"><stop offset="0" stop-color="#ffffff"/><stop offset="1" stop-color="#f2f2f2"/></linearGradient><linearGradient id="svg-v2-01_bathroom-tub-alcove-5ft--rim" x1="0" y1="0" x2="0" y2="1"><stop offset="0" stop-color="#ffffff"/><stop offset="1" stop-color="#f2f2f2"/></linearGradient></defs>
<g id="svg-v2-01_bathroom-tub-alcove-5ft--artwork"><rect x="0" y="0" width="1524" height="762" rx="55" fill="url(#svg-v2-01_bathroom-tub-alcove-5ft--ceramic)" stroke="#111111" stroke-width="20"/><path d="M115 140 Q115 95 165 95 H1359 Q1409 95 1409 145 V570 Q1409 667 1315 667 H209 Q115 667 115 570 Z" fill="url(#svg-v2-01_bathroom-tub-alcove-5ft--rim)" stroke="#111111" stroke-width="16" stroke-linejoin="round"/><path d="M190 205 Q190 165 240 165 H1284 Q1334 165 1334 215 V535 Q1334 600 1268 600 H256 Q190 600 190 535 Z" fill="#ffffff" stroke="#111111" stroke-width="12" stroke-linejoin="round"/><circle cx="762" cy="530" r="30" fill="#f2f2f2" stroke="#111111" stroke-width="12"/><circle cx="762" cy="200" r="20" fill="#f2f2f2" stroke="#111111" stroke-width="10"/><path d="M670 48 V105 M762 48 V105 M854 48 V105 M710 52 Q710 18 762 18 Q814 18 814 52" fill="none" stroke="#111111" stroke-width="16" stroke-linecap="round"/></g>
</svg>
