<svg xmlns="http://www.w3.org/2000/svg" width="1010" height="1110" viewBox="-55 -55 1010 1110" role="img" aria-labelledby="recliner--title recliner--desc" data-vertex-style="white-outline-2">
<title id="recliner--title">Recliner · closed</title>
<desc id="recliner--desc">Original shaded orthographic top view. Nominal footprint 900 by 1000 millimetres. Front is +Y. Transparent background. No clearance or construction certification.</desc>
<defs>
<linearGradient id="recliner--ceramic" x1="0" y1="0" x2="0.9" y2="1"><stop stop-color="#ffffff" /><stop offset="0.5" stop-color="#ffffff" /><stop offset="1" stop-color="#f2f2f2" /></linearGradient>
<linearGradient id="recliner--rim" x1="0" y1="0" x2="0.8" y2="1"><stop stop-color="#ffffff" /><stop offset="0.35" stop-color="#ffffff" /><stop offset="1" stop-color="#f2f2f2" /></linearGradient>
<radialGradient id="recliner--well" cx="0.52" cy="0.65" r="0.67"><stop stop-color="#ffffff" /><stop offset="0.67" stop-color="#ffffff" /><stop offset="0.88" stop-color="#ffffff" /><stop offset="1" stop-color="#f2f2f2" /></radialGradient>
<linearGradient id="recliner--steel" x1="0" y1="0" x2="1" y2="0.85"><stop stop-color="#ffffff" /><stop offset="0.24" stop-color="#ffffff" /><stop offset="0.49" stop-color="#ffffff" /><stop offset="0.73" stop-color="#ffffff" /><stop offset="1" stop-color="#f2f2f2" /></linearGradient>
<linearGradient id="recliner--steelwell" x1="0" y1="0" x2="0.8" y2="1"><stop stop-color="#ffffff" /><stop offset="0.18" stop-color="#ffffff" /><stop offset="0.56" stop-color="#ffffff" /><stop offset="1" stop-color="#f2f2f2" /></linearGradient>
<linearGradient id="recliner--upholstery" x1="0" y1="0" x2="0.7" y2="1"><stop stop-color="#ffffff" /><stop offset="0.45" stop-color="#ffffff" /><stop offset="1" stop-color="#f2f2f2" /></linearGradient>
<linearGradient id="recliner--cushion" x1="0" y1="0" x2="0.85" y2="1"><stop stop-color="#ffffff" /><stop offset="0.4" stop-color="#ffffff" /><stop offset="0.78" stop-color="#ffffff" /><stop offset="1" stop-color="#f2f2f2" /></linearGradient>
<linearGradient id="recliner--linen" x1="0" y1="0" x2="0.8" y2="1"><stop stop-color="#ffffff" /><stop offset="0.4" stop-color="#ffffff" /><stop offset="1" stop-color="#f2f2f2" /></linearGradient>
<linearGradient id="recliner--wood" x1="0" y1="0" x2="0.35" y2="1"><stop stop-color="#ffffff" /><stop offset="0.5" stop-color="#ffffff" /><stop offset="1" stop-color="#f2f2f2" /></linearGradient>
<linearGradient id="recliner--counter" x1="0" y1="0" x2="0.6" y2="1"><stop stop-color="#ffffff" /><stop offset="0.5" stop-color="#ffffff" /><stop offset="1" stop-color="#f2f2f2" /></linearGradient>
<linearGradient id="recliner--dark" x1="0" y1="0" x2="0.8" y2="1"><stop stop-color="#333333" /><stop offset="0.5" stop-color="#333333" /><stop offset="1" stop-color="#333333" /></linearGradient>
<linearGradient id="recliner--glass" x1="0" y1="0" x2="1" y2="1"><stop stop-color="#ffffff" stop-opacity="0.84" /><stop offset="0.5" stop-color="#ffffff" stop-opacity="0.60" /><stop offset="1" stop-color="#f2f2f2" stop-opacity="0.78" /></linearGradient>
<radialGradient id="recliner--foliage" cx="0.38" cy="0.30" r="0.75"><stop stop-color="#ffffff" /><stop offset="0.55" stop-color="#ffffff" /><stop offset="1" stop-color="#f2f2f2" /></radialGradient>
<linearGradient id="recliner--leaf" x1="0" y1="0" x2="1" y2="1"><stop stop-color="#ffffff" /><stop offset="0.5" stop-color="#ffffff" /><stop offset="1" stop-color="#f2f2f2" /></linearGradient>
<linearGradient id="recliner--tread" x1="0" y1="0" x2="0" y2="1"><stop stop-color="#ffffff" /><stop offset="0.78" stop-color="#ffffff" /><stop offset="1" stop-color="#f2f2f2" /></linearGradient>
</defs>
<g id="recliner--artwork"><rect x="0" y="0" width="900" height="1000" rx="90" fill="url(#recliner--upholstery)" stroke="#111111" stroke-width="10" /><rect x="108" y="260" width="684" height="700" rx="71.82" fill="url(#recliner--cushion)" stroke="#111111" stroke-width="10" /><rect x="126.468" y="277.1" width="647.064" height="665.8" rx="58.174" fill="none" stroke="#b8b8b8" stroke-width="2.01818" opacity=".75" /><path d="M138.164,292.319 q25.855,4.309 38.783,30.883" fill="none" stroke="#111111" stroke-width="7" stroke-linejoin="round" stroke-linecap="round" opacity=".75" /><path d="M761.836,292.319 q-25.855,4.309 -38.783,30.883" fill="none" stroke="#111111" stroke-width="7" stroke-linejoin="round" stroke-linecap="round" opacity=".75" /><path d="M138.164,927.681 q25.855,-4.309 38.783,-30.883" fill="none" stroke="#111111" stroke-width="7" stroke-linejoin="round" stroke-linecap="round" opacity=".75" /><path d="M761.836,927.681 q-25.855,-4.309 -38.783,-30.883" fill="none" stroke="#111111" stroke-width="7" stroke-linejoin="round" stroke-linecap="round" opacity=".75" /><rect x="108" y="45" width="684" height="190" rx="30" fill="url(#recliner--upholstery)" stroke="#111111" stroke-width="10" /><rect x="113.13" y="49.75" width="673.74" height="180.5" rx="24.3" fill="none" stroke="#b8b8b8" stroke-width="2.01818" opacity=".75" /><path d="M120.6,58.5 q10.8,1.8 16.2,12.9" fill="none" stroke="#111111" stroke-width="7" stroke-linejoin="round" stroke-linecap="round" opacity=".75" /><path d="M779.4,58.5 q-10.8,1.8 -16.2,12.9" fill="none" stroke="#111111" stroke-width="7" stroke-linejoin="round" stroke-linecap="round" opacity=".75" /><path d="M120.6,221.5 q10.8,-1.8 16.2,-12.9" fill="none" stroke="#111111" stroke-width="7" stroke-linejoin="round" stroke-linecap="round" opacity=".75" /><path d="M779.4,221.5 q-10.8,-1.8 -16.2,-12.9" fill="none" stroke="#111111" stroke-width="7" stroke-linejoin="round" stroke-linecap="round" opacity=".75" /><rect x="0" y="60" width="96" height="880" rx="35" fill="url(#recliner--upholstery)" stroke="#111111" stroke-width="10" /><rect x="2.592" y="62.4" width="90.816" height="875.2" rx="28.35" fill="none" stroke="#b8b8b8" stroke-width="2.01818" opacity=".75" /><path d="M14.7,75.75 q12.6,2.1 18.9,15.05" fill="none" stroke="#111111" stroke-width="7" stroke-linejoin="round" stroke-linecap="round" opacity=".75" /><path d="M81.3,75.75 q-12.6,2.1 -18.9,15.05" fill="none" stroke="#111111" stroke-width="7" stroke-linejoin="round" stroke-linecap="round" opacity=".75" /><path d="M14.7,924.25 q12.6,-2.1 18.9,-15.05" fill="none" stroke="#111111" stroke-width="7" stroke-linejoin="round" stroke-linecap="round" opacity=".75" /><path d="M81.3,924.25 q-12.6,-2.1 -18.9,-15.05" fill="none" stroke="#111111" stroke-width="7" stroke-linejoin="round" stroke-linecap="round" opacity=".75" /><rect x="804" y="60" width="96" height="880" rx="35" fill="url(#recliner--upholstery)" stroke="#111111" stroke-width="10" /><rect x="806.592" y="62.4" width="90.816" height="875.2" rx="28.35" fill="none" stroke="#b8b8b8" stroke-width="2.01818" opacity=".75" /><path d="M818.7,75.75 q12.6,2.1 18.9,15.05" fill="none" stroke="#111111" stroke-width="7" stroke-linejoin="round" stroke-linecap="round" opacity=".75" /><path d="M885.3,75.75 q-12.6,2.1 -18.9,15.05" fill="none" stroke="#111111" stroke-width="7" stroke-linejoin="round" stroke-linecap="round" opacity=".75" /><path d="M818.7,924.25 q12.6,-2.1 18.9,-15.05" fill="none" stroke="#111111" stroke-width="7" stroke-linejoin="round" stroke-linecap="round" opacity=".75" /><path d="M885.3,924.25 q-12.6,-2.1 -18.9,-15.05" fill="none" stroke="#111111" stroke-width="7" stroke-linejoin="round" stroke-linecap="round" opacity=".75" /><path d="M171,820 L729,820" fill="none" stroke="#111111" stroke-width="7" stroke-linejoin="round" stroke-linecap="round" /></g>
</svg>
