<svg xmlns="http://www.w3.org/2000/svg" width="1900" height="850" viewBox="-50 -50 1900 850" role="img" aria-labelledby="steam-table--title steam-table--desc" data-vertex-style="white-outline-2">
<title id="steam-table--title">Four well steam table</title>
<desc id="steam-table--desc">Original orthographic steam table top view with four flanged food pans, two fitted lids, front serving ledge, rear guard supports and separate heat controls. Nominal footprint 1800 by 750 millimetres. Serving side is +Y. Transparent background.</desc>
<!-- Original Vertex artwork, GPL-3.0-or-later. -->
<g fill="#ffffff" stroke="#111111" stroke-width="10" stroke-linejoin="round" stroke-linecap="round">
<rect x="0" y="0" width="1800" height="750" rx="18"/>
<rect x="25" y="25" width="1750" height="560" rx="12"/>
<rect x="60" y="100" width="390" height="440" rx="28" fill="#f2f2f2"/>
<rect x="490" y="100" width="390" height="440" rx="28" fill="#f2f2f2"/>
<rect x="920" y="100" width="390" height="440" rx="28" fill="#f2f2f2"/>
<rect x="1350" y="100" width="390" height="440" rx="28" fill="#f2f2f2"/>
<rect x="85" y="125" width="340" height="390" rx="22"/>
<rect x="515" y="125" width="340" height="390" rx="22"/>
<path d="M120 170H390V470H120ZM550 170H820V470H550Z" fill="#f2f2f2" stroke-width="6"/>
<path d="M142 195H368M142 445H368M572 195H798M572 445H798" fill="none" stroke-width="4"/>
<rect x="945" y="125" width="340" height="390" rx="22"/>
<rect x="1375" y="125" width="340" height="390" rx="22"/>
<path d="M975 160H1255V480H975ZM1405 160H1685V480H1405Z" fill="none" stroke-width="5"/>
<rect x="1085" y="255" width="60" height="125" rx="22" fill="#f2f2f2" stroke-width="8"/>
<rect x="1515" y="255" width="60" height="125" rx="22" fill="#f2f2f2" stroke-width="8"/>
<path d="M1105 278V357M1535 278V357" fill="none" stroke-width="5"/>
<rect x="25" y="605" width="1750" height="95" rx="10" fill="#f2f2f2"/>
<path d="M50 632H1750M50 676H1750" fill="none" stroke-width="5"/>
<circle cx="255" cy="726" r="16"/><circle cx="685" cy="726" r="16"/>
<circle cx="1115" cy="726" r="16"/><circle cx="1545" cy="726" r="16"/>
<path d="M255 726V716M685 726V716M1115 726V716M1545 726V716" fill="none" stroke-width="4"/>
<circle cx="100" cy="60" r="20" fill="#f2f2f2"/><circle cx="900" cy="60" r="20" fill="#f2f2f2"/><circle cx="1700" cy="60" r="20" fill="#f2f2f2"/>
<path d="M120 60H880M920 60H1680" fill="none" stroke-width="8"/>
</g>
</svg>
